# xmcd CD database file
#
# Track frame offsets:
#	150
#	13495
#	37275
#	49312
#	63220
#	73192
#	88257
#	100312
#	119685
#	129805
#	147930
#	158465
#	176560
#	190560
#	205495
#
# Disc length: 2985 seconds
#
# Revision: 0
# Processed by: cddbd v1.5PL3 Copyright (c) Steve Scherf et al.
# Submitted via: CDex 1.51
#
DISCID=df0ba70f
DTITLE=Celio Gonzalez - Lo mejor de Celio Gonzalez edicion limitada
DYEAR=2001
DGENRE=Salsa
TTITLE0=Total
TTITLE1=Pa´ todo el año
TTITLE2=Amor sin esperanza
TTITLE3=Estoy pensando en ti
TTITLE4=Sin pensar en ti
TTITLE5=Hasta mañana
TTITLE6=He perdido una perla
TTITLE7=Que ganas tengo
TTITLE8=Vendabal sin rumbo
TTITLE9=Inolvidable
TTITLE10=La Primera piedra
TTITLE11=El lunes hay que trabajar
TTITLE12=Que mas puedo pedir
TTITLE13=Mil gracias
TTITLE14=Mexico
EXTD=YEAR: 2001
EXTT0=
EXTT1=
EXTT2=
EXTT3=
EXTT4=
EXTT5=
EXTT6=
EXTT7=
EXTT8=
EXTT9=
EXTT10=
EXTT11=
EXTT12=
EXTT13=
EXTT14=
PLAYORDER=
